<?xml version="1.0" encoding="utf-8"?>
<!-- Generator: Adobe Illustrator 19.2.1, SVG Export Plug-In . SVG Version: 6.00 Build 0)  -->
<svg version="1.1" id="layer" xmlns="http://www.w3.org/2000/svg" xmlns:xlink="http://www.w3.org/1999/xlink" x="0px" y="0px"
	 viewBox="0 0 652 652" style="enable-background:new 0 0 652 652;" xml:space="preserve">
<style type="text/css">
	.st0{fill:#FF0500;}
</style>
<path d="M79.3,258.3c0.1-0.5,0.2-0.9,0.2-1.4H39.6L21.2,360.6l38.4,0.3c1.8,0,2.3-0.9,2.5-2.5L79.3,258.3z"/>
<path d="M415.7,258.3c0.1-0.5,0.2-0.9,0.2-1.4H376l-18.4,103.6l38.4,0.3c1.8,0,2.3-0.9,2.5-2.5L415.7,258.3z"/>
<path d="M115.9,360.8c-10,0-20,0-30.1,0c-8,0-14-6.5-12.8-14.4c1.7-11.1,3.7-22,5.6-33.1c1-5.6,2.1-11.2,3-16.9
	c1.7-10,10.1-17.3,20.2-17.3c19,0,38.1,0,57.1,0c9.7,0,15.7,7.8,13.7,17.3c-1.8,8.3-3.1,16.7-4.5,25.1c-0.4,2.4-1.1,3.2-3.6,3.2
	c-14.8-0.1-29.6,0-44.5-0.1c-2.5,0-3.7,0.6-4,3.2c-0.5,4-1.3,8-2,11.9c-0.4,2.3,1.4,3,2.8,3.2c2.5,0.3,5.2,0.2,7.7-0.1
	c3-0.4,3.4-2.9,3.9-5.4c0.7-3.7,0.8-3.6,4.4-3.6c10.2,0,20.4,0,30.6,0c1.9,0,2.5,0.6,2.1,2.4c-0.8,3.5-1.4,7.1-2.2,10.6
	c-1.9,7.8-10.6,14.3-18.3,14C135.4,360.6,125.7,360.8,115.9,360.8 M130.7,311.9c1.7-0.1,2.5-0.5,2.8-2.1c0.6-3.1,1.3-6.2,1.7-9.4
	c0.1-0.7-0.6-1.9-1.3-2.3c-3-1.9-6.2-1.6-9.5-0.6c-2.1,0.6-3.3,2-3.5,4.4c-0.1,1.8-0.6,3.6-0.9,5.5c-0.8,4.5-0.8,4.5,3.7,4.5
	C124.5,311.9,128.1,312.1,130.7,311.9"/>
<path d="M304.6,360.9c-9.9,0-19.7,0-29.6,0c-8.4,0-14.3-6.1-13.2-14.5c1-7.7,2.5-15.2,3.9-22.9c1.7-9.7,3.2-19.4,5.3-29
	c1.6-7.4,6.7-12.1,13.9-14.3c2.2-0.7,4.6-0.9,7-0.9c18.4-0.1,36.9,0,55.3,0c10.3,0,16.1,7,14.3,17.2c-1.5,8.5-3.1,17-4.6,25.6
	c-0.4,2.1-1.3,2.8-3.5,2.8c-14.8-0.1-29.6,0-44.5-0.1c-2.5,0-3.6,0.7-3.9,3.3c-0.4,3.7-1.2,7.3-2,10.9c-0.5,2.1,0.2,3.3,2.1,3.9
	c3.7,1.2,7.4,1.2,10.6-1.1c0.9-0.6,1.3-2.4,1.5-3.7c0.6-4.1,0.6-4.1,4.7-4.1c10,0,20,0,30.1,0c2.1,0,2.9,0.5,2.4,2.7
	c-1.1,5-1.1,10.2-4,14.7c-3.9,6-9.1,9.5-16.5,9.5C324.1,360.8,314.4,360.9,304.6,360.9 M315.1,312L315.1,312c1.6,0,3.2-0.1,4.8,0
	c1.6,0.1,2.4-0.5,2.7-2.2c0.4-2.9,1-5.8,1.6-8.6c0.3-1.5-0.1-2.4-1.5-3c-3.3-1.6-6.6-1.6-9.9,0c-1,0.5-2.2,1.4-2.5,2.4
	c-0.8,3-1.2,6.1-1.8,9.1c-0.3,1.7,0.1,2.6,2,2.4C312,311.9,313.5,312,315.1,312"/>
<path d="M266.2,279.2c-9.2,0-18.4-0.1-27.5,0c-6.9,0.1-5.9-1.3-8,5.7c-3,9.9-11.9,37.9-13.2,42c-0.2,0-0.5,0-0.7,0
	c-0.1-0.9-0.3-30.7-0.2-44.8c0-2.3-0.7-3-3-3c-10.7,0.1-21.4,0.1-32.1,0c-2.4,0-3.2,0.6-3.2,3.1c0.1,25,0,50,0,75
	c0,3.5,0,3.5,3.5,3.5c18.9,0,37.7,0,56.6,0.1c2.4,0,3.3-1,3.9-3l26.8-78.7C267.8,279.2,267,279.2,266.2,279.2"/>
<path class="st0" d="M621.1,291.3c0.3-1.7-0.4-3.4-0.8-4c-0.9-1.3-1.5-2.2-2.5-3.4c-3.2-3.7-7.5-4.5-12.1-4.5c-22.5,0-45,0-67.5,0
	l14.8,37.5l-23-0.4l-11.4,66.8c12.4,0,23.6-0.1,36-0.1c1.2-6.8,2.3-13.7,3.7-20.5c0.1-0.7,1.9-1.4,2.9-1.4
	c10.1-0.1,20.2,0.1,30.3-0.2c3.3-0.1,6.7-0.8,9.7-2.2c6-2.7,9.7-7.6,11-14.1L621.1,291.3z M582.9,302.2c-1.1,5.6-1.9,11.3-2.9,16.9
	c-1.2,6.9-2.4,13.9-3.7,20.8c-0.1,0.8-0.9,1.6-1.5,2.1c-3.3,2-6.9,2-10.4,0.8c-1.6-0.6-2.4-1.6-2-3.7c1.7-8.5,3-17,4.5-25.5
	c0.8-4.4,1.5-8.8,2.4-13.1c0.2-0.8,1.1-1.7,1.7-2.2c2-1.5,3.3-1.2,5.2-1.6c1.5,0.2,2.5,0.3,3.4,0.5
	C583,297.7,583.6,298.9,582.9,302.2"/>
<path class="st0" d="M504.3,316l-19.4-0.3l25.9-35.5c0-0.8-0.4-1.2-1.7-1.2c-10.9,0.1-21.9,0.1-32.8,0c-1.5,0-2.1,0.6-2.3,2
	l-10.4,58.6c-0.1,0.7-0.6,1.5-1.1,1.9c-2.8,2.2-8.9,2.5-11.7,0.4c-0.6-0.4-1.1-1.5-1.2-2.3c0-0.1,0-0.2,0-0.3l10.4-58.2
	c0.1-1.4-0.5-2.1-2.4-2c-4.6,0.2-9.3,0.1-13.9,0.1c-7.1,0-14.1,0-21.2,0c-1.2,0-2.3-0.1-2.6,1.6l-11.4,67.2c0,0.8,0.1,1.6,0.2,2.3
	c1.2,6.8,6.3,10.7,13.2,10.7l73.3,0L504.3,316z"/>
<g>
	<g>
		<path d="M605.2,385.1c-5.2,0-9.4-4.2-9.4-9.4c0-5.2,4.2-9.4,9.4-9.4c5.2,0,9.4,4.2,9.4,9.4S610.4,385.1,605.2,385.1z M605.2,367.6
			c-4.5,0-8.1,3.6-8.1,8.1c0,4.5,3.6,8.1,8.1,8.1c4.5,0,8.1-3.6,8.1-8.1C613.3,371.3,609.7,367.6,605.2,367.6z"/>
	</g>
	<g>
		<path d="M605.8,378.3h-1.4v-3.7c0-0.4,0-0.8,0.1-1.3h0c-0.1,0.4-0.1,0.6-0.2,0.8l-1.4,4.2h-1.1l-1.5-4.1c0-0.1-0.1-0.4-0.2-0.9h0
			c0,0.6,0.1,1.1,0.1,1.6v3.4h-1.2v-6.1h2l1.2,3.6c0.1,0.3,0.2,0.6,0.2,0.9h0c0.1-0.3,0.2-0.6,0.2-0.9l1.2-3.6h2L605.8,378.3
			L605.8,378.3z"/>
		<path d="M612.3,378.3h-1.6l-1-1.6c-0.1-0.1-0.1-0.2-0.2-0.3c-0.1-0.1-0.1-0.2-0.2-0.2c-0.1-0.1-0.1-0.1-0.2-0.2
			c-0.1,0-0.2-0.1-0.2-0.1h-0.4v2.3h-1.4v-6.1h2.2c1.5,0,2.2,0.6,2.2,1.7c0,0.2,0,0.4-0.1,0.6c-0.1,0.2-0.2,0.3-0.3,0.5
			c-0.1,0.1-0.3,0.3-0.4,0.4c-0.2,0.1-0.4,0.2-0.6,0.2v0c0.1,0,0.2,0.1,0.3,0.1c0.1,0.1,0.2,0.1,0.2,0.2c0.1,0.1,0.2,0.2,0.2,0.3
			c0.1,0.1,0.1,0.2,0.2,0.3L612.3,378.3z M608.6,373.2v1.7h0.6c0.3,0,0.5-0.1,0.7-0.3c0.2-0.2,0.3-0.4,0.3-0.6c0-0.5-0.3-0.8-1-0.8
			H608.6z"/>
	</g>
</g>
</svg>
